<svg width="24" height="24" viewBox="0 0 24 24" fill="none" xmlns="http://www.w3.org/2000/svg">
<path d="M13.3982 16.0147C13.1791 15.1089 12.7168 14.3133 12.011 13.6646C11.2931 12.9914 10.4414 12.5875 9.46794 12.4406C9.38276 12.4284 9.04206 12.3794 8.32416 12.4039C8.10514 12.4161 7.78877 12.4651 7.64276 12.5018C6.32863 12.8078 5.3917 13.5544 4.69813 14.705C4.07757 15.7209 3.87072 16.8347 4.07757 18.022C4.29659 19.2827 4.92932 20.2986 5.93925 21.0453C6.80317 21.6817 7.7401 22 8.71353 22C9.23675 22 9.77213 21.9143 10.3075 21.7307C11.4756 21.339 12.3761 20.5802 12.9723 19.4663C13.5442 18.377 13.6902 17.2264 13.3982 16.0147ZM12.7776 17.1775C12.7776 18.2546 12.3517 19.2705 11.5973 20.0294C10.8429 20.7882 9.83297 21.2166 8.7622 21.2166C6.55982 21.2166 4.75897 19.4051 4.75897 17.1775C4.75897 16.1003 5.17268 15.0967 5.92709 14.3256C6.68149 13.5667 7.7036 13.1383 8.77437 13.1383H8.78654C10.9768 13.1505 12.7776 14.962 12.7776 17.1775Z" fill="#6153CC"/>
<path d="M11.1715 19.0623L10.9281 18.8175C10.3319 18.2177 9.74781 17.6302 9.13942 17.0182C9.13942 16.6143 9.13942 16.2104 9.13942 15.8065V15.525V15.4638C9.13942 15.4026 9.13942 15.3291 9.13942 15.2679C9.12725 15.0598 8.96907 14.9007 8.76221 14.9007C8.70137 14.9007 8.6527 14.913 8.59186 14.9374C8.50669 14.9742 8.39718 15.0721 8.39718 15.3169C8.39718 15.3169 8.38501 16.8958 8.38501 17.1039C8.38501 17.263 8.43368 17.4099 8.55536 17.5201C9.05424 18.0219 9.55313 18.5237 10.0642 19.0378L10.6361 19.6131C10.6604 19.6376 10.6847 19.662 10.7212 19.6865C10.7942 19.7355 10.8673 19.76 10.9403 19.76C11.0376 19.76 11.1349 19.7232 11.208 19.6498C11.3418 19.5152 11.354 19.3071 11.2445 19.148C11.2323 19.1235 11.1958 19.0868 11.1715 19.0623Z" fill="#6153CC"/>
<path d="M12.1083 17.569C12.2787 17.569 12.376 17.5078 12.4368 17.4466C12.5098 17.3732 12.5342 17.2753 12.5342 17.1651C12.522 16.957 12.3638 16.8102 12.157 16.7979C11.8893 16.7857 11.7189 16.9081 11.6824 17.1284C11.6703 17.2386 11.6946 17.3487 11.7676 17.4344C11.8163 17.4956 11.9258 17.569 12.1083 17.569Z" fill="#6153CC"/>
<path d="M5.41611 16.8101H5.40394C5.2701 16.8101 5.16058 16.8468 5.08758 16.9325C5.01457 17.0059 4.99023 17.0916 4.99023 17.2018C5.0024 17.4221 5.17275 17.5445 5.41611 17.5445C5.67163 17.5445 5.84199 17.4099 5.85415 17.1895C5.85415 17.0794 5.82982 16.9937 5.75681 16.9325C5.69597 16.8713 5.59863 16.8101 5.41611 16.8101Z" fill="#6153CC"/>
<path d="M6.43814 19.1357C6.30429 19.1357 6.15828 19.2337 6.06094 19.3805C5.96359 19.5274 5.97576 19.7233 6.10961 19.8579C6.18261 19.9313 6.27996 19.9681 6.3773 19.9681C6.45031 19.9681 6.52331 19.9436 6.59632 19.8946C6.64499 19.8579 6.70583 19.7967 6.7545 19.7355C6.85185 19.6253 6.86401 19.4662 6.79101 19.3316C6.70583 19.2092 6.58415 19.1357 6.43814 19.1357Z" fill="#6153CC"/>
<path d="M8.83522 20.115C8.81089 20.115 8.78655 20.1027 8.76221 20.1027C8.5797 20.1027 8.38501 20.2374 8.38501 20.5311C8.38501 20.6658 8.42151 20.7759 8.50669 20.8494C8.5797 20.9228 8.66487 20.9595 8.77438 20.9595H8.78655C8.98124 20.9473 9.13942 20.8004 9.15159 20.5923C9.16375 20.2863 9.00557 20.1517 8.83522 20.115Z" fill="#6153CC"/>
<path d="M6.2192 15.1579C6.28004 15.2068 6.35305 15.2313 6.43822 15.2313C6.49906 15.2313 6.5599 15.2191 6.62074 15.1824C6.75459 15.1089 6.8276 14.9865 6.8276 14.8519C6.8276 14.7172 6.74242 14.5704 6.59641 14.4725C6.45039 14.3623 6.24354 14.3868 6.10969 14.5214C5.97584 14.656 5.96368 14.8641 6.07319 15.011C6.10969 15.06 6.15836 15.1089 6.2192 15.1579Z" fill="#6153CC"/>
<path d="M8.38501 13.8115C8.38501 14.142 8.59186 14.2154 8.68921 14.2399C8.71354 14.2399 8.75005 14.2521 8.77438 14.2521C8.90823 14.2521 9.01774 14.1909 9.07858 14.0808C9.16375 13.9339 9.17592 13.7503 9.09075 13.5912C9.01774 13.4565 8.87173 13.3831 8.70138 13.4076C8.55536 13.4198 8.38501 13.5422 8.38501 13.8115Z" fill="#6153CC"/>
<path d="M11.0984 15.219C11.0984 15.219 11.1106 15.219 11.0984 15.219C11.1106 15.219 11.1106 15.219 11.0984 15.219C11.2931 15.219 11.4026 15.0721 11.4634 14.9987C11.5729 14.8395 11.5608 14.6437 11.4269 14.5091C11.2931 14.3744 11.0862 14.3622 10.9402 14.4723C10.8915 14.5091 10.8429 14.558 10.7942 14.6315C10.709 14.7416 10.6969 14.8885 10.7699 15.0231C10.8064 15.1088 10.9037 15.219 11.0984 15.219Z" fill="#6153CC"/>
<path d="M20.5652 2.67319C20.2488 2.23256 19.8108 2 19.2754 2C16.8905 2 14.5056 2 12.1207 2C11.4758 2 10.8187 2.02448 10.1738 2.02448C9.83312 2.02448 9.50459 2.1224 9.2369 2.31824C8.79886 2.63647 8.57983 3.08935 8.57983 3.64015C8.57983 6.13709 8.57983 8.64626 8.57983 11.1432C8.57983 11.3146 8.71368 11.437 8.88403 11.437C9.41942 11.437 9.93047 11.5104 10.4172 11.6573C10.5267 11.694 10.624 11.6083 10.624 11.4982C10.624 11.437 10.624 11.3758 10.624 11.3146C10.624 11.0208 10.8674 10.7882 11.1473 10.7882C11.4758 10.7882 11.8043 10.7882 12.1329 10.7882C12.437 10.7882 12.6561 11.0086 12.6561 11.3268C12.6561 11.4859 12.6561 11.645 12.6561 11.8042C12.6561 12.1224 12.437 12.3305 12.1207 12.3427C12.0355 12.3427 11.9503 12.3427 11.8652 12.3427C12.6196 12.8323 13.2401 13.5055 13.6782 14.3011C13.6782 14.1787 13.6782 14.0441 13.6782 13.9217C13.6782 13.5912 13.8972 13.3709 14.2379 13.3709C14.5543 13.3831 14.8585 13.3709 15.1748 13.3709C15.5034 13.3709 15.7224 13.5789 15.7224 13.9094C15.7224 14.0685 15.7224 14.2154 15.7224 14.3745C15.7224 14.6928 15.5034 14.9131 15.187 14.9131C15.0288 14.9131 14.8585 14.9131 14.7003 14.9131C14.5421 14.9131 14.3839 14.9131 14.2257 14.9131C14.104 14.9131 14.0189 15.0233 14.0675 15.1334C14.2379 15.623 14.3474 16.1493 14.3717 16.6879C14.3839 16.847 14.5056 16.9694 14.6638 16.9694C15.041 16.9694 15.4182 16.9694 15.7954 16.9694C16.9513 16.9694 18.1194 16.9694 19.2754 16.9694C19.5674 16.9694 19.8595 16.896 20.115 16.7368C20.6017 16.4308 20.845 15.978 20.845 15.3904C20.845 13.4321 20.845 11.4737 20.845 9.5153C20.845 7.55691 20.845 5.58629 20.845 3.62791C20.8572 3.28519 20.772 2.95471 20.5652 2.67319ZM12.6682 9.23378C12.6682 9.55202 12.4492 9.7601 12.1329 9.77234C11.9747 9.77234 11.8043 9.77234 11.6461 9.77234C11.488 9.77234 11.3298 9.77234 11.1716 9.77234C10.8431 9.77234 10.6362 9.55202 10.624 9.23378C10.624 9.07466 10.624 8.92778 10.624 8.76866C10.624 8.45043 10.8431 8.24235 11.1473 8.23011C11.4758 8.23011 11.8043 8.23011 12.1329 8.23011C12.437 8.23011 12.6561 8.45043 12.6561 8.76866C12.6682 8.91554 12.6682 9.07466 12.6682 9.23378ZM13.6903 9.22154C13.6903 9.07466 13.6903 8.92778 13.6903 8.76866C13.6903 8.45043 13.9094 8.23011 14.2257 8.23011C14.5543 8.23011 14.8706 8.23011 15.1992 8.23011C15.5155 8.23011 15.7345 8.45043 15.7345 8.76866C15.7345 8.92778 15.7345 9.0869 15.7345 9.24602C15.7345 9.56426 15.5155 9.77234 15.1992 9.78458C15.041 9.78458 14.8706 9.78458 14.7124 9.78458C14.5543 9.78458 14.3961 9.78458 14.2379 9.78458C13.9094 9.77234 13.6903 9.55202 13.6903 9.22154ZM15.1992 12.3427C15.041 12.3427 14.8706 12.3427 14.7124 12.3427C14.5543 12.3427 14.3839 12.3427 14.2257 12.3427C13.9094 12.3427 13.6903 12.1224 13.6903 11.8042C13.6903 11.645 13.6903 11.4859 13.6903 11.3268C13.6903 11.0086 13.9094 10.7882 14.2257 10.7882C14.5543 10.7882 14.8706 10.7882 15.1992 10.7882C15.5155 10.7882 15.7345 11.0086 15.7345 11.3268C15.7345 11.4859 15.7345 11.645 15.7345 11.8042C15.7345 12.1224 15.5155 12.3427 15.1992 12.3427ZM18.8008 14.3868C18.8008 14.6928 18.5818 14.9131 18.2655 14.9131C18.0951 14.9131 17.9369 14.9131 17.7666 14.9131C17.6084 14.9131 17.4502 14.9131 17.292 14.9131C16.9757 14.9131 16.7566 14.6928 16.7566 14.3745C16.7566 14.2154 16.7566 14.0685 16.7566 13.9094C16.7566 13.5912 16.9757 13.3709 17.292 13.3709C17.6206 13.3709 17.9491 13.3709 18.2776 13.3709C18.594 13.3709 18.8008 13.5912 18.813 13.8972C18.8008 14.0685 18.8008 14.2277 18.8008 14.3868ZM18.8008 11.8042C18.8008 12.1224 18.5818 12.3305 18.2655 12.3427C18.1073 12.3427 17.9369 12.3427 17.7787 12.3427C17.6206 12.3427 17.4624 12.3427 17.3042 12.3427C16.9757 12.3427 16.7688 12.1224 16.7566 11.8042C16.7566 11.645 16.7566 11.4982 16.7566 11.339C16.7566 11.0208 16.9757 10.8127 17.2799 10.8005C17.6084 10.8005 17.9369 10.8005 18.2655 10.8005C18.5697 10.8005 18.7887 11.0208 18.7887 11.339C18.8008 11.4859 18.8008 11.645 18.8008 11.8042ZM16.7566 9.23378C16.7566 9.07466 16.7566 8.91554 16.7566 8.75642C16.7566 8.45043 16.9757 8.23011 17.292 8.21787C17.6206 8.21787 17.9491 8.21787 18.2776 8.21787C18.5818 8.21787 18.8008 8.43819 18.8008 8.74418C18.8008 8.9033 18.8008 9.07466 18.8008 9.23378C18.8008 9.53978 18.5818 9.74786 18.2776 9.7601C18.1073 9.7601 17.9369 9.7601 17.7787 9.7601C17.6206 9.7601 17.4502 9.7601 17.292 9.7601C16.9757 9.7601 16.7566 9.55202 16.7566 9.23378ZM18.229 7.14076C17.0608 7.14076 15.8806 7.14076 14.7124 7.14076C13.5443 7.14076 12.364 7.14076 11.1959 7.14076C10.8187 7.14076 10.624 6.95716 10.624 6.58996C10.624 5.94125 10.624 5.30477 10.624 4.65606C10.624 4.28886 10.8309 4.08078 11.1959 4.08078C13.5443 4.08078 15.8927 4.08078 18.2411 4.08078C18.6062 4.08078 18.813 4.3011 18.813 4.6683C18.813 5.31701 18.813 5.92901 18.813 6.57772C18.8008 6.95716 18.6062 7.14076 18.229 7.14076Z" fill="#6153CC"/>
</svg>
