<svg width="24" height="24" viewBox="0 0 24 24" fill="none" xmlns="http://www.w3.org/2000/svg">
<g clip-path="url(#clip0_1_1554)">
<path d="M17.6244 10.7431C17.4825 10.7431 17.4786 10.7352 17.447 10.5894C17.321 10.0575 17.1318 9.54922 16.8718 9.06853C16.6669 8.69422 16.4305 8.33961 16.1547 8.01258C16.072 7.91802 16.0286 7.81558 16.005 7.70131C15.8868 7.0709 15.7686 6.44048 15.6543 5.81006C15.4809 4.85656 15.3076 3.90305 15.1342 2.94954C15.0554 2.52401 14.8032 2.23244 14.4289 2.03544C14.3619 2.00786 8.41238 1.98816 8.37692 2.00786C7.92774 2.2088 7.67952 2.55553 7.59283 3.04017C7.39583 4.13158 7.18306 5.21905 6.98212 6.30652C6.91119 6.68477 6.83633 7.06696 6.77723 7.44915C6.74965 7.63433 6.67085 7.78012 6.5487 7.91408C5.7725 8.79272 5.30757 9.81715 5.08692 10.9637C4.8387 12.2561 5.20119 13.58 5.29181 13.8676C5.55974 14.7108 5.98527 15.4633 6.57629 16.1213C6.64721 16.2001 6.66691 16.2947 6.68661 16.3893C6.74571 16.6848 6.79693 16.9803 6.84815 17.2797C6.91907 17.6737 6.99394 18.0638 7.06486 18.4578C7.2067 19.238 7.34461 20.0181 7.49039 20.7943C7.52191 20.9677 7.56131 21.141 7.62041 21.3065C7.73468 21.6178 7.95138 21.8345 8.25083 21.9763C8.30599 22.0039 14.2753 22.0118 14.3225 21.9921C14.7638 21.799 15.0002 21.4562 15.0869 20.9913C15.2327 20.1718 15.3824 19.3522 15.5322 18.5366C15.6228 18.0402 15.7213 17.5476 15.8158 17.0512C15.8513 16.8581 15.8868 16.6651 15.9183 16.472C15.9419 16.3105 16.005 16.1765 16.1114 16.0543C16.7694 15.29 17.2146 14.4153 17.447 13.4342C17.4825 13.2844 17.4825 13.2766 17.6204 13.2766C19.2595 13.2647 19.2871 10.7431 17.6244 10.7431ZM8.24689 6.41684C8.43996 5.38847 8.62908 4.35616 8.82215 3.32779C8.84579 3.19777 8.85761 3.18595 8.98369 3.18201C9.03097 3.17807 9.07432 3.18201 9.1216 3.18201C10.6228 3.18201 12.1279 3.18201 13.6291 3.18201C13.7079 3.18201 13.7867 3.18201 13.8812 3.18201C14.1019 4.28524 14.2989 5.40029 14.4801 6.51534C13.9719 6.28681 13.4833 6.05829 12.9553 5.92038C12.4273 5.78248 11.8915 5.70368 11.3438 5.70368C10.804 5.70762 10.2721 5.78248 9.75201 5.92432C9.22798 6.07011 8.73153 6.28287 8.23113 6.56262C8.24295 6.4917 8.24295 6.45624 8.24689 6.41684ZM14.4171 17.4846C14.4053 17.6028 14.4013 17.721 14.3777 17.8353C14.2083 18.7651 14.0349 19.6911 13.8615 20.617C13.8497 20.68 13.83 20.7431 13.8182 20.7982C13.6645 20.8376 9.06249 20.8495 8.79063 20.8101C8.76305 20.6997 8.73153 20.5815 8.70788 20.4633C8.5621 19.6989 8.42026 18.9306 8.28235 18.1623C8.24295 17.9377 8.21931 17.7092 8.18779 17.4846C8.18385 17.4807 8.17991 17.4807 8.17597 17.4767C8.17991 17.4807 8.18385 17.4807 8.18779 17.4846C8.25871 17.5161 8.33357 17.5398 8.4045 17.5792C8.97187 17.8786 9.56683 18.0953 10.1972 18.2135C10.6819 18.3041 11.1744 18.3396 11.6669 18.3081C12.5298 18.249 13.3454 18.0205 14.1137 17.6225C14.2122 17.5673 14.3147 17.5279 14.4171 17.4846C14.4171 17.4807 14.421 17.4767 14.425 17.4728C14.421 17.4728 14.421 17.4767 14.4171 17.4846ZM11.3675 17.9101C8.10899 17.9101 5.45729 15.2584 5.45729 12C5.45729 8.7415 8.10899 6.08981 11.3675 6.08981C14.6259 6.08981 17.2776 8.7415 17.2776 12C17.2776 15.2584 14.6259 17.9101 11.3675 17.9101Z" fill="#6153CC"/>
<path d="M11.3672 6.40502C8.28207 6.40502 5.77222 8.91487 5.77222 12C5.77222 15.0851 8.28207 17.5949 11.3672 17.5949C14.4523 17.5949 16.9621 15.0851 16.9621 12C16.9621 8.91487 14.4523 6.40502 11.3672 6.40502ZM7.07245 12.0827H6.24503C6.17017 12.0827 6.10713 12.0197 6.10713 11.9448C6.10713 11.8699 6.17017 11.8069 6.24503 11.8069H7.07245C7.14731 11.8069 7.21036 11.8699 7.21036 11.9448C7.21036 12.0197 7.15126 12.0827 7.07245 12.0827ZM11.0914 6.80297C11.0914 6.72811 11.1544 6.66507 11.2293 6.66507C11.3041 6.66507 11.3672 6.72811 11.3672 6.80297V7.59099C11.3672 7.66586 11.3041 7.7289 11.2293 7.7289C11.1544 7.7289 11.0914 7.66586 11.0914 7.59099V6.80297ZM7.62801 8.52086C7.63983 8.5051 7.66741 8.50116 7.68317 8.51298L7.97868 8.74939C7.99444 8.76121 7.99838 8.78879 7.98656 8.80455C7.97868 8.81243 7.96686 8.82031 7.95504 8.82031C7.94716 8.82031 7.93928 8.81637 7.9314 8.81243L7.63589 8.57602C7.61619 8.56026 7.61619 8.53662 7.62801 8.52086ZM8.08506 15.5855L7.84865 15.881C7.84077 15.8889 7.82895 15.8967 7.81713 15.8967C7.80925 15.8967 7.80137 15.8928 7.79349 15.8889C7.77773 15.877 7.77379 15.8495 7.78561 15.8337L8.02202 15.5382C8.03384 15.5224 8.06142 15.5185 8.07718 15.5303C8.09294 15.5421 8.09688 15.5697 8.08506 15.5855ZM11.3672 17.2837C11.3672 17.3585 11.3041 17.4216 11.2293 17.4216C11.1544 17.4216 11.0914 17.3585 11.0914 17.2837V16.4956C11.0914 16.4208 11.1544 16.3577 11.2293 16.3577C11.3041 16.3577 11.3672 16.4208 11.3672 16.4956V17.2837ZM14.7478 14.7896C14.7635 15.0772 14.6296 15.2821 14.4011 15.4397C14.1765 15.5933 13.9204 15.684 13.6564 15.747C13.2505 15.8495 12.8368 15.9007 12.4231 15.9243C12.0725 15.944 11.7257 15.9558 11.3751 15.9677C10.8195 15.9598 10.2639 15.9361 9.71233 15.8613C9.35378 15.814 9.00311 15.7431 8.66426 15.6091C8.51059 15.5461 8.36481 15.4712 8.23873 15.3609C8.07324 15.2151 7.98262 15.0378 7.98656 14.8132C7.9905 14.7226 7.98262 14.628 7.9905 14.5374C8.0102 14.3365 8.11658 14.1749 8.24661 14.0291C8.45937 13.7927 8.71548 13.6115 8.98735 13.4499C9.3656 13.2214 9.76749 13.0402 10.1851 12.8904C10.4373 12.7959 10.5555 12.5476 10.4846 12.264C10.4649 12.193 10.4373 12.13 10.3861 12.0748C9.94873 11.5902 9.68869 11.0189 9.58624 10.3766C9.52714 9.9984 9.53502 9.62409 9.65322 9.25766C9.86205 8.60754 10.3033 8.20565 10.9771 8.07169C11.4184 7.98107 11.8479 8.02835 12.2498 8.23717C12.7226 8.48146 13.0063 8.87941 13.1245 9.39162C13.2584 9.97082 13.1796 10.5303 12.9669 11.078C12.8171 11.4602 12.6083 11.8069 12.3246 12.1103C12.3167 12.1182 12.3049 12.1261 12.301 12.1379C12.2419 12.3112 12.2064 12.4885 12.2695 12.6698C12.3089 12.7841 12.3916 12.855 12.5059 12.8944C12.9629 13.048 13.4042 13.2372 13.8179 13.4893C14.0858 13.6509 14.338 13.8321 14.535 14.0764C14.6769 14.2537 14.7635 14.4468 14.7478 14.6792C14.7438 14.7186 14.7438 14.7541 14.7478 14.7896ZM14.736 8.72575C14.7281 8.72575 14.7202 8.72181 14.7123 8.71786C14.6966 8.70604 14.6926 8.67846 14.7044 8.6627L14.9409 8.3672C14.9527 8.35144 14.9803 8.34749 14.996 8.35932C15.0118 8.37114 15.0157 8.39872 15.0039 8.41448L14.7675 8.70998C14.7596 8.71786 14.7478 8.72575 14.736 8.72575ZM15.1615 15.7273C15.1536 15.7352 15.1418 15.7431 15.13 15.7431C15.1221 15.7431 15.1142 15.7391 15.1063 15.7352L14.8108 15.4988C14.7951 15.487 14.7911 15.4594 14.8029 15.4436C14.8148 15.4279 14.8423 15.4239 14.8581 15.4357L15.1536 15.6721C15.1694 15.684 15.1733 15.7076 15.1615 15.7273ZM16.3711 12.0827H15.5437C15.4688 12.0827 15.4058 12.0197 15.4058 11.9448C15.4058 11.8699 15.4688 11.8069 15.5437 11.8069H16.3711C16.446 11.8069 16.509 11.8699 16.509 11.9448C16.509 12.0197 16.4499 12.0827 16.3711 12.0827Z" fill="#6153CC"/>
</g>
<defs>
<clipPath id="clip0_1_1554">
<rect width="13.8613" height="20" fill="white" transform="translate(5 2)"/>
</clipPath>
</defs>
</svg>
