<svg width="24" height="24" viewBox="0 0 24 24" fill="none" xmlns="http://www.w3.org/2000/svg">
<path fill-rule="evenodd" clip-rule="evenodd" d="M16.4203 16.3324C16.3634 16.1997 16.28 16.0765 16.1831 15.9595C15.8983 15.6119 15.528 15.3445 15.1293 15.1306C14.5312 14.7829 13.8763 14.5155 13.1927 14.3015C13.0218 14.2481 12.908 14.1411 12.851 13.9806C12.7656 13.7133 12.8225 13.4726 12.908 13.2319L12.9364 13.2051C13.3352 12.7773 13.6484 12.2959 13.8763 11.7611C14.1895 10.9856 14.3035 10.2101 14.1041 9.40785C13.9332 8.6858 13.5345 8.151 12.8225 7.80335C12.2244 7.5092 11.5978 7.42895 10.9429 7.5627C9.94605 7.74985 9.291 8.31145 8.97775 9.22065C8.7784 9.72875 8.7784 10.2369 8.8638 10.7717C9.0062 11.6542 9.37645 12.4564 10.0315 13.125C10.1169 13.2052 10.1454 13.2854 10.1739 13.3924C10.2593 13.7935 10.0884 14.1411 9.7182 14.2748C9.12015 14.4888 8.52205 14.7295 7.95245 15.0504C7.55375 15.2642 7.1835 15.5317 6.87025 15.8526C6.69935 16.0398 6.5285 16.2804 6.5 16.5478V16.7274C6.23661 16.4987 5.98988 16.2515 5.76186 15.9875C6.6855 15.019 7.52843 14.2075 9.24085 13.75C9.24085 13.75 8.4042 13.4644 7.92575 13.3282C7.80615 13.2942 7.7264 13.2261 7.6865 13.124C7.6267 12.9539 7.6666 12.8007 7.7264 12.6475L7.7463 12.6305C8.0254 12.3583 8.2447 12.0519 8.4042 11.7116C8.6235 11.2181 8.70325 10.7246 8.5637 10.2141C8.44405 9.75458 8.16495 9.41423 7.6666 9.19303C7.24795 9.00583 6.80935 8.95478 6.3508 9.03988C5.65305 9.15898 5.19455 9.51633 4.97525 10.0949C4.8357 10.4183 4.8357 10.7416 4.8955 11.0819C4.9952 11.6435 5.25435 12.154 5.71285 12.5795C5.7727 12.6305 5.7926 12.6816 5.81255 12.7497C5.87235 13.0049 5.75275 13.2261 5.4936 13.3112C5.13538 13.4277 4.77716 13.5567 4.43141 13.7194C4.15223 12.9487 4 12.1171 4 11.25C4 7.24595 7.24595 4 11.25 4C15.254 4 18.5 7.24595 18.5 11.25C18.5 12.0464 18.3716 12.8128 18.1343 13.5297C17.9541 13.4574 17.7721 13.3918 17.59 13.3298C17.3417 13.2443 17.2271 13.0222 17.2844 12.7658C17.3035 12.6974 17.3226 12.6462 17.3799 12.5949C17.8192 12.1676 18.0675 11.6549 18.163 11.0909C18.2203 10.7491 18.2203 10.4244 18.0866 10.0997C17.8765 9.51859 17.4372 9.15969 16.7688 9.04004C16.3295 8.95459 15.9093 9.00589 15.5082 9.19384C15.0307 9.41604 14.7634 9.75784 14.6488 10.2193C14.515 10.732 14.5914 11.2276 14.8015 11.7233C14.9543 12.0651 15.1644 12.3727 15.4318 12.6462L15.4509 12.6633C15.5082 12.8171 15.5464 12.9709 15.4891 13.1418C15.4509 13.2443 15.3745 13.3127 15.2599 13.3469C14.8015 13.4836 14 13.7704 14 13.7704C15.4635 14.1803 16.2168 14.8493 16.9901 15.6793C16.8132 15.9083 16.6229 16.1264 16.4203 16.3324ZM15.8746 18.6794C14.5328 19.5164 12.9479 20 11.25 20C6.4175 20 2.5 16.0825 2.5 11.25C2.5 6.4175 6.4175 2.5 11.25 2.5C16.0825 2.5 20 6.4175 20 11.25C20 13.5402 19.1201 15.6249 17.68 17.1845L20.8017 20.3213C21.2727 20.7946 21.2808 21.557 20.8199 22.0402C20.3324 22.5513 19.5158 22.5486 19.0317 22.0342L15.8746 18.6794Z" fill="#6153CC"/>
</svg>
