<svg width="40" height="40" viewBox="0 0 40 40" fill="none" xmlns="http://www.w3.org/2000/svg">
<circle cx="20" cy="20" r="20" fill="#796DD4"/>
<path fill-rule="evenodd" clip-rule="evenodd" d="M20.1946 20.1945V32H26.8498C29.7168 32 32.0001 29.6389 32.0001 26.7719V20.1945H20.1946ZM22.8136 25.1975C22.5405 25.1975 22.3402 25.0838 22.3038 24.7807C22.2674 24.4965 22.4312 24.2881 22.7226 24.2692H28.9862C29.2411 24.3071 29.405 24.4776 29.3868 24.7617C29.3686 25.027 29.2047 25.1785 28.9498 25.1975H22.8136ZM22.3038 27.1754C22.3402 27.4785 22.5405 27.5922 22.8136 27.5922H28.9498C29.2047 27.5733 29.3686 27.4217 29.3868 27.1565C29.405 26.8723 29.2411 26.7018 28.9862 26.6639H22.7226C22.4312 26.6829 22.2674 26.8913 22.3038 27.1754Z" fill="white"/>
<path fill-rule="evenodd" clip-rule="evenodd" d="M19.8055 8V19.8055H8V13.1503C8 10.2833 10.3611 8 13.2281 8H19.8055ZM12.7945 17.2284C13.2241 17.2748 13.6691 17.3058 14.1141 17.3058C14.3903 17.2903 14.6665 17.2748 14.958 17.3058C15.2802 17.2903 15.6178 17.2439 15.9401 17.1665C16.1549 17.12 16.3543 17.0426 16.5385 16.9188C16.7226 16.7949 16.83 16.6247 16.8147 16.3925V16.3151C16.83 16.1293 16.7533 15.9745 16.6459 15.8352C16.4924 15.634 16.293 15.4792 16.0781 15.3554C15.7559 15.1541 15.403 14.9993 15.0347 14.8755C14.9427 14.8445 14.8813 14.7826 14.8506 14.6897C14.8046 14.5349 14.8353 14.3956 14.8813 14.2563L14.8966 14.2408C15.1115 13.9932 15.2802 13.7145 15.403 13.4049C15.5718 12.956 15.6332 12.5071 15.5258 12.0427C15.4337 11.6248 15.2189 11.3152 14.8353 11.114C14.513 10.9437 14.1755 10.8973 13.8225 10.9747C13.2855 11.083 12.9326 11.4081 12.7638 11.9344C12.6564 12.2285 12.6564 12.5226 12.7024 12.8322C12.7791 13.343 12.9786 13.8074 13.3315 14.1944C13.3776 14.2408 13.3929 14.2873 13.4082 14.3492C13.4543 14.5814 13.3622 14.7826 13.1627 14.86C12.8405 14.9839 12.5183 15.1232 12.2114 15.3089C11.9966 15.4328 11.7971 15.5875 11.6283 15.7733C11.5362 15.8817 11.4442 16.021 11.4288 16.1758V16.3925C11.4288 16.5628 11.4902 16.7021 11.6283 16.8259C11.7204 16.9188 11.8431 16.9807 11.9659 17.0271C12.2267 17.1355 12.5029 17.1819 12.7945 17.2284Z" fill="white"/>
<path fill-rule="evenodd" clip-rule="evenodd" d="M32.0001 19.8055H20.1946V8H26.8498C29.7168 8 32.0001 10.2833 32.0001 13.1503V19.8055ZM23.2879 12.1203C23.2188 12.2759 23.1842 12.466 23.1842 12.6908C23.1842 12.9155 23.2188 13.1229 23.2879 13.2958C23.357 13.4686 23.4435 13.5896 23.5645 13.6934C23.6855 13.7971 23.8238 13.8662 23.9794 13.9181C24.1522 13.9699 24.3251 13.9872 24.5152 13.9872C24.7054 13.9872 24.8783 13.9699 25.0338 13.9181C25.1894 13.8662 25.3277 13.7971 25.4487 13.6934C25.5697 13.5896 25.6561 13.4514 25.7253 13.2958C25.7944 13.1402 25.829 12.95 25.829 12.708C25.829 12.4833 25.7944 12.2759 25.7253 12.1203C25.6561 11.9474 25.5697 11.8264 25.4487 11.7227C25.3277 11.619 25.1894 11.5498 25.0338 11.498C24.8783 11.4461 24.7054 11.4288 24.5152 11.4288C24.3251 11.4288 24.1349 11.4461 23.9794 11.498C23.8238 11.5498 23.6855 11.619 23.5645 11.7227C23.4435 11.8264 23.357 11.9647 23.2879 12.1203ZM28.1973 12.1722C28.3356 12.0166 28.3183 11.7919 28.1627 11.6536C28.0071 11.5153 27.7651 11.5326 27.6441 11.6881L23.8065 16.0789C23.6682 16.2172 23.6855 16.4419 23.8238 16.5802L23.8411 16.5975C23.9794 16.7531 24.2214 16.7358 24.3597 16.5802L28.1973 12.1722ZM24.5152 13.3303C24.2214 13.3303 24.0658 13.1229 24.0658 12.6908C24.0658 12.4487 24.1004 12.2759 24.1695 12.1894C24.2559 12.103 24.3597 12.0512 24.5152 12.0512C24.6708 12.0512 24.7745 12.103 24.8437 12.1894C24.9128 12.2759 24.9474 12.4487 24.9474 12.6908C24.9474 12.9328 24.9128 13.1056 24.8437 13.1921C24.7745 13.2785 24.6708 13.3303 24.5152 13.3303ZM26.3303 14.9034C26.2612 15.059 26.2266 15.2491 26.2266 15.4739C26.2266 15.6986 26.2612 15.906 26.3303 16.0789C26.3995 16.2518 26.4859 16.3728 26.6069 16.4765C26.7279 16.5802 26.8662 16.6493 27.0218 16.7012C27.1946 16.7531 27.3675 16.7704 27.5577 16.7704C27.7478 16.7704 27.9207 16.7531 28.0763 16.7012C28.2318 16.6493 28.3701 16.5802 28.4911 16.4765C28.6121 16.3728 28.6986 16.2345 28.7677 16.0789C28.8369 15.9233 28.8714 15.7332 28.8714 15.4912C28.8714 15.2664 28.8369 15.059 28.7677 14.9034C28.6986 14.7306 28.6121 14.6095 28.4911 14.5058C28.3701 14.4021 28.2318 14.333 28.0763 14.2811C27.9207 14.2292 27.7478 14.212 27.5577 14.212C27.3675 14.212 27.1774 14.2292 27.0218 14.2811C26.8662 14.333 26.7279 14.4021 26.6069 14.5058C26.4859 14.6095 26.3995 14.7478 26.3303 14.9034ZM27.5577 16.1135C27.2638 16.1135 27.1082 15.906 27.1082 15.4739C27.1082 15.2319 27.1428 15.059 27.2119 14.9726C27.2984 14.8861 27.4021 14.8343 27.5577 14.8343C27.7132 14.8343 27.817 14.8861 27.8861 14.9726C27.9552 15.059 27.9898 15.2319 27.9898 15.4739C27.9898 15.7159 27.9552 15.8887 27.8861 15.9752C27.817 16.0616 27.7132 16.1135 27.5577 16.1135Z" fill="white"/>
<path fill-rule="evenodd" clip-rule="evenodd" d="M8 20.1945H19.8055V32H13.2281C10.3611 32 8 29.6389 8 26.7719V20.1945ZM15.7795 28.3598C15.8689 28.3956 15.9405 28.4134 16.03 28.4134C16.2805 28.4134 16.531 28.2703 16.6384 28.0377C16.7637 27.7156 16.6384 27.3577 16.3163 27.2145L14.1511 26.284V22.8304C14.1511 22.4904 13.8648 22.2041 13.5248 22.2041C13.1848 22.2041 12.8985 22.4904 12.8985 22.8304V26.6956C12.8985 26.9461 13.0058 27.1787 13.2385 27.2682L15.7795 28.3598Z" fill="white"/>
</svg>
